<svg viewBox="0 0 340 72" fill="none" xmlns="http://www.w3.org/2000/svg" role="img" aria-label="VoidAd">
  <defs>
    <linearGradient id="globeFill" x1="8" y1="8" x2="64" y2="64" gradientUnits="userSpaceOnUse">
      <stop stop-color="#0d2818"/>
      <stop stop-color="#143d2a"/>
      <stop offset="1" stop-color="#0a1410"/>
    </linearGradient>
    <linearGradient id="shieldFill" x1="36" y1="10" x2="36" y2="62" gradientUnits="userSpaceOnUse">
      <stop stop-color="#00ff99"/>
      <stop offset="0.55" stop-color="#00cc7a"/>
      <stop offset="1" stop-color="#00995c"/>
    </linearGradient>
    <linearGradient id="lockFill" x1="36" y1="22" x2="36" y2="46" gradientUnits="userSpaceOnUse">
      <stop stop-color="#ffffff"/>
      <stop offset="1" stop-color="#e6fff4"/>
    </linearGradient>
    <linearGradient id="wordGrad" x1="88" y1="20" x2="320" y2="48" gradientUnits="userSpaceOnUse">
      <stop stop-color="#ffffff"/>
      <stop offset="0.72" stop-color="#e8fff5"/>
      <stop offset="1" stop-color="#00ff99"/>
    </linearGradient>
  </defs>
  <circle cx="36" cy="36" r="33" stroke="#00ff99" stroke-opacity="0.28" stroke-width="1.2"/>
  <circle cx="36" cy="36" r="33" fill="url(#globeFill)" fill-opacity="0.85"/>
  <ellipse cx="36" cy="36" rx="33" ry="11" stroke="#00ff99" stroke-opacity="0.22" stroke-width="0.9"/>
  <ellipse cx="36" cy="36" rx="33" ry="22" stroke="#00ff99" stroke-opacity="0.18" stroke-width="0.9"/>
  <ellipse cx="36" cy="36" rx="14" ry="33" stroke="#00ff99" stroke-opacity="0.2" stroke-width="0.9"/>
  <path d="M36 9 L57 18.5 V37.5 C57 51.5 47.5 59.5 36 63 C24.5 59.5 15 51.5 15 37.5 V18.5 L36 9 Z" fill="url(#shieldFill)" fill-opacity="0.92" stroke="#66ffcc" stroke-width="1.25"/>
  <path d="M27.5 31.2 C27.5 23.2 44.5 23.2 44.5 31.2" stroke="url(#lockFill)" stroke-width="2.35" fill="none" stroke-linecap="round"/>
  <path d="M27 31.4 L34.2 44.2 Q36 46.2 37.8 44.2 L45 31.4 L41.2 31.4 L36 40.2 L30.8 31.4 Z" fill="url(#lockFill)"/>
  <path d="M30.6 31.8 L36 39.8 L41.4 31.8 L39.2 31.8 L36 36.4 L32.8 31.8 Z" fill="#00a86b"/>
  <circle cx="36" cy="33.6" r="1.75" fill="#050a0a"/>
  <rect x="35.15" y="34.1" width="1.7" height="3.6" rx="0.4" fill="#050a0a"/>
  <text x="88" y="46" fill="url(#wordGrad)" font-family="Rajdhani, Inter, system-ui, sans-serif" font-size="38" font-weight="700" letter-spacing="0.14em">VOIDAD</text>
  <rect x="88" y="52" width="132" height="2.5" rx="1.25" fill="#00ff99" fill-opacity="0.45"/>
</svg>
