<svg viewBox="0 0 340 72" fill="none" xmlns="http://www.w3.org/2000/svg" role="img" aria-label="VoidAd">
  <defs>
    <linearGradient id="globeFill" x1="8" y1="8" x2="64" y2="64" gradientUnits="userSpaceOnUse">
      <stop stop-color="#0d2818"/>
      <stop stop-color="#143d2a"/>
      <stop offset="1" stop-color="#0a1410"/>
    </linearGradient>
    <linearGradient id="shieldFill" x1="36" y1="10" x2="36" y2="62" gradientUnits="userSpaceOnUse">
      <stop stop-color="#00ff99"/>
      <stop offset="0.55" stop-color="#00cc7a"/>
      <stop offset="1" stop-color="#00995c"/>
    </linearGradient>
    <linearGradient id="wordGrad" x1="88" y1="20" x2="320" y2="48" gradientUnits="userSpaceOnUse">
      <stop stop-color="#ffffff"/>
      <stop offset="0.72" stop-color="#e8fff5"/>
      <stop offset="1" stop-color="#00ff99"/>
    </linearGradient>
  </defs>
  <circle cx="36" cy="36" r="33" stroke="#00ff99" stroke-opacity="0.28" stroke-width="1.2"/>
  <circle cx="36" cy="36" r="33" fill="url(#globeFill)" fill-opacity="0.85"/>
  <ellipse cx="36" cy="36" rx="33" ry="11" stroke="#00ff99" stroke-opacity="0.22" stroke-width="0.9"/>
  <ellipse cx="36" cy="36" rx="33" ry="22" stroke="#00ff99" stroke-opacity="0.18" stroke-width="0.9"/>
  <ellipse cx="36" cy="36" rx="14" ry="33" stroke="#00ff99" stroke-opacity="0.2" stroke-width="0.9"/>
  <path d="M36 9 L57 18.5 V37.5 C57 51.5 47.5 59.5 36 63 C24.5 59.5 15 51.5 15 37.5 V18.5 L36 9 Z" fill="url(#shieldFill)" fill-opacity="0.92" stroke="#66ffcc" stroke-width="1.25"/>
  <path d="M27 28.5 C27 20.8 45 20.8 45 28.5" stroke="#f5fffa" stroke-width="2.85" fill="none" stroke-linecap="round"/>
  <path d="M28 29 L36 46.5 L44 29 Z" fill="#f5fffa"/>
  <path d="M31.2 29.4 L36 41.2 L40.8 29.4 Z" fill="#00b36b"/>
  <circle cx="36" cy="32" r="2.05" fill="#050a0a"/>
  <rect x="35.05" y="32.6" width="1.9" height="4.2" rx="0.45" fill="#050a0a"/>
  <text x="88" y="46" fill="url(#wordGrad)" font-family="Rajdhani, Inter, system-ui, sans-serif" font-size="38" font-weight="700" letter-spacing="0.14em">VOIDAD</text>
  <rect x="88" y="52" width="132" height="2.5" rx="1.25" fill="#00ff99" fill-opacity="0.45"/>
</svg>
